<svg xmlns="http://www.w3.org/2000/svg" xmlns:xlink="http://www.w3.org/1999/xlink" width="500" zoomAndPan="magnify" viewBox="0 0 375 97.5" height="130" preserveAspectRatio="xMidYMid meet" version="1.0"><defs><clipPath id="0dc348c081"><path d="M 0.957031 0 L 374.042969 0 L 374.042969 97.003906 L 0.957031 97.003906 Z M 0.957031 0 " clip-rule="nonzero"/></clipPath></defs><g clip-path="url(#0dc348c081)"><path stroke-linecap="butt" transform="matrix(1.18884, 0, 0, 1.18884, 0.555072, 14.496929)" fill="none" stroke-linejoin="miter" d="M 95.77979 40.594951 C 95.822505 40.614666 95.868506 40.654095 95.914506 40.709953 C 95.960507 40.769097 95.983508 40.834812 95.983508 40.907099 C 95.983508 41.022101 95.95065 41.110817 95.881649 41.179818 C 95.815933 41.248819 95.733789 41.281677 95.641788 41.281677 L 95.32964 41.248819 C 95.286925 41.271819 95.254067 41.281677 95.234353 41.281677 C 89.454688 40.959671 83.753882 40.762525 78.141792 40.69681 C 72.526416 40.627809 66.865039 40.604809 61.157661 40.624523 C 60.217932 40.624523 59.291345 40.624523 58.374616 40.624523 C 57.802893 40.624523 57.3396 40.732954 56.984737 40.9531 C 56.629874 41.173246 56.327583 41.557681 56.077865 42.10969 C 54.609127 45.454601 53.110817 48.786369 51.57965 52.10828 C 50.745065 53.922023 49.917052 55.735767 49.092324 57.546224 C 48.500886 58.870388 47.916019 60.207696 47.344296 61.561432 C 47.042005 62.228443 46.756143 62.895453 46.483425 63.562464 C 46.46371 63.624894 46.427567 63.693895 46.374994 63.766182 C 46.33228 63.95347 46.256707 64.12433 46.141705 64.282047 C 45.954416 64.436478 45.71127 64.52848 45.41555 64.554766 C 45.116546 64.581052 44.860256 64.521908 44.640109 64.383906 C 44.423249 64.242618 44.360819 63.999471 44.452821 63.657751 C 44.659824 63.082742 44.889828 62.527447 45.139546 61.985296 C 47.337724 56.964643 49.552331 51.943991 51.780082 46.923339 C 52.302519 45.753606 52.828241 44.574015 53.360536 43.37471 C 53.432822 43.197279 53.511681 43.006704 53.593825 42.796415 C 53.781114 42.379123 53.968402 41.968402 54.155691 41.560967 C 54.333123 41.104245 54.218121 40.847955 53.813971 40.795383 C 50.89621 40.870956 47.994878 40.999101 45.109974 41.186389 C 43.598521 41.271819 42.073925 41.347392 40.529615 41.422965 C 39.665458 41.442679 39.060877 41.8534 38.719157 42.655127 C 37.207704 45.917894 35.633822 49.151089 34.000795 52.357998 C 33.041351 54.253886 32.068764 56.156345 31.079748 58.06209 C 30.715028 58.748815 30.350308 59.438826 29.985588 60.125552 C 29.775299 60.562559 29.545295 60.973279 29.295577 61.361 C 29.045858 61.70272 28.707424 61.913009 28.280275 61.991867 C 27.853125 62.070726 27.481833 62.047725 27.163114 61.922866 C 26.84768 61.798007 26.696535 61.597575 26.719535 61.328142 C 26.834537 60.795848 26.99554 60.293126 27.202543 59.813404 C 28.848712 55.594479 30.646027 51.44784 32.594487 47.373489 C 33.281212 45.927751 33.967938 44.478728 34.654663 43.029705 C 34.845237 42.572983 34.720378 42.316693 34.280085 42.25755 C 33.843078 42.201691 33.202354 42.21812 32.357912 42.313408 C 32.338197 42.313408 32.302054 42.313408 32.249481 42.313408 C 30.780743 42.448124 29.272576 42.655127 27.72498 42.931132 C 26.180669 43.207136 25.165367 43.410854 24.688931 43.54557 C 24.209209 43.660572 23.71963 43.719716 23.220193 43.719716 C 23.187335 43.749288 23.151192 43.765717 23.108477 43.765717 C 23.069048 43.765717 23.019761 43.749288 22.967189 43.719716 L 22.704328 43.765717 C 22.60904 43.765717 22.517039 43.729573 22.421752 43.657286 C 22.32975 43.581714 22.280464 43.489712 22.280464 43.37471 C 22.303464 43.312281 22.339607 43.233422 22.398751 43.141421 C 22.454609 43.046134 22.520325 42.980418 22.592612 42.937703 C 24.42607 42.290407 26.295671 41.843543 28.204702 41.593825 C 30.37988 41.271819 32.558343 40.995815 34.733521 40.765811 C 35.462962 40.746097 35.978827 40.410948 36.281118 39.766938 C 36.915271 38.462488 37.578996 37.161325 38.265721 35.860161 C 39.087163 34.319136 39.928319 32.781397 40.782619 31.250229 C 41.071766 30.678506 41.370771 30.103497 41.673062 29.531773 C 41.712491 29.479201 41.748634 29.423343 41.781492 29.360913 C 41.863636 29.170339 41.962209 28.999479 42.077211 28.845048 C 42.65222 28.178037 43.131942 27.451883 43.522949 26.673156 C 43.913955 25.891143 44.272103 25.089416 44.594109 24.264688 C 44.74854 23.922969 44.899685 23.577963 45.047545 23.232957 C 47.817446 16.983428 50.551205 10.71747 53.248819 4.438369 C 54.490839 1.688182 55.443712 -1.147435 56.110723 -4.061911 C 56.380156 -5.113356 56.449157 -6.168087 56.311154 -7.219533 C 56.176438 -7.833971 55.775574 -8.152691 55.108564 -8.178977 C 54.441553 -8.205263 53.63654 -8.034403 52.686953 -7.663111 C 51.740652 -7.295105 50.754922 -6.844955 49.733049 -6.319233 C 48.714461 -5.79351 47.79116 -5.277644 46.969718 -4.774922 C 46.144991 -4.268914 45.537124 -3.891051 45.139546 -3.641332 C 45.024544 -3.578903 44.948972 -3.529616 44.906257 -3.500044 C 34.155226 3.186492 24.531214 11.220193 16.030934 20.594486 C 15.094491 21.626217 14.194191 22.690806 13.336605 23.788252 C 12.475734 24.888984 11.68715 26.045574 10.967567 27.264594 C 10.428701 28.181323 9.99498 29.140767 9.672975 30.13964 C 9.275397 31.680665 9.387113 32.860255 10.008123 33.67184 C 10.629133 34.483424 11.55572 35.028862 12.79774 35.304866 C 14.036474 35.580871 15.383638 35.676158 16.835947 35.594014 C 18.288257 35.511869 19.658421 35.360724 20.946442 35.147149 C 22.231177 34.933574 23.23005 34.723285 23.93649 34.516282 C 24.780933 34.305993 25.62866 34.108847 26.48296 33.921558 C 27.2124 33.786842 27.416118 33.832842 27.094113 34.062846 C 26.772107 34.29285 26.072239 34.608284 25.001079 35.009147 C 23.926633 35.410011 22.638612 35.801017 21.133731 36.17888 C 19.62885 36.560029 18.071396 36.829462 16.467942 36.99375 C 14.864487 37.154753 13.359606 37.11861 11.953297 36.891892 C 10.546989 36.661888 9.400256 36.139451 8.516385 35.321295 C 7.629228 34.503139 7.175792 33.290691 7.156077 31.687236 C 7.156077 31.644522 7.156077 31.605092 7.156077 31.562377 C 7.20865 30.553647 7.448511 29.587631 7.87566 28.670902 C 8.595243 27.014876 9.511972 25.480422 10.625847 24.060971 C 11.802152 22.529803 13.031029 21.051208 14.312478 19.625185 C 22.56304 10.572897 31.855189 2.759342 42.188927 -3.812192 C 43.404661 -4.594205 44.824112 -5.448504 46.437424 -6.375091 C 48.050736 -7.301677 49.713334 -8.080404 51.421933 -8.711271 C 53.130532 -9.342138 54.7307 -9.624714 56.219153 -9.562285 C 57.865322 -9.470283 58.765623 -8.609412 58.923339 -6.982958 C 58.995626 -6.381662 58.992341 -5.790224 58.913482 -5.218501 C 58.834624 -4.646777 58.722908 -4.071768 58.578334 -3.500044 C 58.558619 -3.4179 58.535619 -3.329184 58.515904 -3.233897 C 58.213614 -1.860447 57.822607 -0.519854 57.342885 0.787882 C 56.863163 2.095617 56.350584 3.390209 55.795289 4.671659 C 51.099928 15.839981 46.181134 26.896588 41.04548 37.844764 C 40.891049 38.166769 40.74319 38.498632 40.608473 38.843637 C 40.381755 39.375932 40.404756 39.740652 40.68076 39.944369 C 40.956764 40.148087 41.420058 40.249946 42.070639 40.249946 C 42.721221 40.249946 43.483519 40.220374 44.360819 40.154659 C 44.495536 40.154659 44.630252 40.141515 44.764969 40.108658 C 45.339978 40.088943 45.921559 40.056086 46.516282 40.016656 C 49.151468 39.806367 51.766938 39.665079 54.359409 39.592792 C 54.81613 39.592792 55.13485 39.402218 55.312281 39.014497 C 55.519285 38.600491 55.719716 38.176627 55.907005 37.749477 C 59.291345 30.300643 62.813688 22.92081 66.467461 15.609978 C 70.12452 8.29586 73.834151 1.011314 77.593069 -6.250232 C 77.635784 -6.342233 77.681784 -6.43752 77.734357 -6.532807 C 77.869073 -6.874527 78.072791 -7.160389 78.342224 -7.390393 C 78.552513 -7.505395 78.795659 -7.561253 79.071664 -7.561253 C 79.347668 -7.561253 79.580958 -7.498823 79.774818 -7.373964 C 79.965392 -7.249105 80.004822 -7.025673 79.88982 -6.703667 C 79.870105 -6.631381 79.837248 -6.552522 79.797818 -6.470378 C 79.495528 -5.688365 79.16038 -4.91621 78.795659 -4.157198 C 76.942487 -0.427852 75.072885 3.298208 73.186855 7.014411 C 72.529701 8.338575 71.869262 9.666025 71.202251 11.000046 C 66.828895 19.73033 62.540969 28.506614 58.345044 37.328899 C 58.269472 37.493187 58.193899 37.657475 58.108469 37.811907 C 58.016468 37.999195 57.931038 38.183198 57.858751 38.36063 C 57.609033 38.912639 57.592604 39.267501 57.81275 39.428504 C 58.029611 39.589507 58.381188 39.645365 58.86091 39.592792 C 63.881562 39.323359 68.997502 39.264216 74.212014 39.415361 C 79.423241 39.566506 84.598324 39.776795 89.733978 40.046228 C 91.307861 40.118515 92.875172 40.197374 94.435911 40.282803 C 94.511484 40.282803 94.567342 40.282803 94.610057 40.282803 C 94.81706 40.282803 95.024064 40.299232 95.227781 40.335376 C 95.428213 40.371519 95.615502 40.456949 95.77979 40.594951 Z M 75.703752 34.000417 C 75.099171 34.59514 74.396017 35.101149 73.59429 35.525013 C 72.792563 35.945591 72.11898 36.221595 71.576829 36.353026 C 71.037963 36.481171 70.479383 36.556743 69.907659 36.579744 C 68.99093 36.619173 68.146488 36.494314 67.374333 36.201881 C 66.115884 35.692587 65.675591 34.72 66.063312 33.280834 C 66.428032 32.042099 67.167329 31.072798 68.281204 30.376215 C 69.395079 29.676347 70.548384 29.337913 71.734546 29.360913 C 71.734546 29.360913 71.744403 29.360913 71.764118 29.360913 C 72.066408 29.337913 72.355556 29.360913 72.624989 29.423343 C 73.08171 29.587631 73.374144 29.86035 73.499003 30.234927 C 73.623862 30.609505 73.541718 31.026797 73.249284 31.483519 C 72.582274 32.495535 71.678688 33.057401 70.531955 33.172403 C 69.769657 33.24469 69.036931 33.208547 68.327205 33.063973 C 68.192489 33.040973 68.074201 33.077116 67.969056 33.172403 C 67.863912 33.264405 67.801482 33.379407 67.781768 33.514123 C 67.571479 34.411137 67.847483 34.982861 68.609781 35.235865 C 69.546225 35.55787 70.522098 35.55787 71.530828 35.235865 C 72.697275 34.871145 73.807865 34.181134 74.85931 33.172403 C 75.910756 32.160387 76.518623 31.690522 76.679625 31.756238 C 76.840628 31.825239 76.889914 32.022385 76.827485 32.34439 C 76.682911 32.853684 76.308334 33.405693 75.703752 34.000417 Z M 69.046788 31.483519 C 68.984359 31.555806 68.941644 31.63795 68.915357 31.726666 C 68.889071 31.815381 68.921929 31.89424 69.017216 31.969812 C 69.378651 32.176816 69.776228 32.252388 70.203378 32.19653 C 70.630528 32.137387 70.991962 31.976384 71.287681 31.710237 C 71.586686 31.44409 71.714831 31.118799 71.672116 30.734364 C 71.639258 30.599648 71.566972 30.514218 71.45197 30.478074 C 71.336968 30.438645 71.225252 30.432073 71.11025 30.451788 C 70.338095 30.58979 69.651369 30.93151 69.046788 31.483519 Z M 87.226938 32.038814 C 87.470085 32.180102 87.489799 32.521821 87.282796 33.063973 C 86.980505 33.458265 86.655215 33.829557 86.313495 34.171276 C 85.968489 34.516282 85.593912 34.821858 85.186477 35.094577 C 85.156905 35.094577 85.140476 35.104434 85.140476 35.124149 C 84.871043 35.311438 84.581895 35.47244 84.282891 35.610443 C 81.792279 36.504171 80.520687 35.978448 80.468115 34.029988 C 79.459384 34.907288 78.782516 35.442868 78.437511 35.640014 C 77.616069 36.129594 76.72234 36.34974 75.766182 36.297168 C 75.056456 36.254453 74.576734 36.037592 74.320444 35.649872 C 74.064155 35.258865 74.087155 34.729857 74.389446 34.062846 C 74.849453 33.011401 75.500035 32.071671 76.344477 31.250229 C 77.333493 30.3335 78.430939 29.597489 79.640102 29.04548 C 80.287398 28.723474 80.964266 28.598615 81.670706 28.670902 C 82.380431 28.713617 82.807581 29.114481 82.952155 29.873493 C 83.014584 30.103497 82.958726 30.307214 82.781295 30.484646 C 82.551291 30.691649 82.285144 30.740936 81.982854 30.625934 C 81.963139 30.625934 81.933567 30.619362 81.897424 30.609505 C 81.86128 30.599648 81.831708 30.583219 81.811994 30.563504 C 81.509703 30.146212 81.204127 29.972066 80.89855 30.037781 C 80.589688 30.106782 80.264397 30.244785 79.922678 30.451788 C 78.319223 31.391517 77.12649 32.699253 76.344477 34.374994 C 76.301762 34.447281 76.275476 34.529425 76.265619 34.618141 C 76.255761 34.706857 76.282047 34.775858 76.344477 34.82843 C 76.531766 34.890859 76.738769 34.877716 76.968773 34.789001 C 77.198777 34.700285 77.425494 34.568854 77.655498 34.397994 C 77.885502 34.227135 78.079362 34.082561 78.233793 33.967559 C 78.256794 33.937987 78.266651 33.921558 78.266651 33.921558 C 79.025663 33.287405 79.771532 32.636823 80.500973 31.969812 C 80.822978 31.624807 81.223841 31.430947 81.703563 31.391517 C 82.390289 31.391517 82.67615 31.697094 82.561149 32.311532 C 82.498719 32.541536 82.433004 32.77154 82.360717 33.001543 C 82.087998 33.990559 82.078141 34.568854 82.327859 34.743 C 82.577577 34.91386 82.962012 34.91386 83.477878 34.743 C 83.993743 34.568854 84.506323 34.243563 85.022188 33.75727 C 85.538054 33.274262 85.975061 32.830683 86.326638 32.42982 C 86.681501 32.028956 86.980505 31.897526 87.226938 32.038814 Z M 93.811615 32.548107 C 94.156621 32.203102 94.442483 32.009242 94.672486 31.969812 C 94.90249 31.927097 95.05035 31.963241 95.116065 32.078243 C 95.185066 32.193245 95.139065 32.347676 94.984634 32.548107 C 94.067905 33.652125 93.042746 34.604998 91.90587 35.406725 C 90.772281 36.208452 89.602548 36.671745 88.399957 36.796604 C 87.19408 36.921464 86.467926 36.26431 86.218207 34.82843 C 86.030919 33.402407 86.895076 30.494503 88.813964 26.108004 C 90.729566 21.72479 92.244304 18.130161 93.35818 15.327402 C 93.453467 15.077683 93.594755 14.860823 93.782044 14.670248 C 94.031762 14.42053 94.327481 14.364672 94.672486 14.499388 C 94.787488 14.551961 94.90249 14.634105 95.014206 14.749107 C 95.129208 14.864108 95.165352 15.067826 95.125922 15.360259 C 90.197272 27.047733 87.811805 33.402407 87.969521 34.420995 C 88.123952 35.442868 88.784392 35.695872 89.944267 35.180007 C 91.107429 34.664142 92.001158 34.138419 92.632025 33.602839 C 93.262892 33.063973 93.657184 32.712396 93.811615 32.548107 Z M 103.813491 32.45282 C 102.41704 34.09899 101.050161 35.311438 99.709568 36.09345 C 98.37226 36.875463 96.939666 37.131753 95.41507 36.865606 C 93.887188 36.602744 93.259607 35.577585 93.532325 33.796699 C 93.719614 32.899685 93.972618 32.025671 94.297909 31.171371 C 95.099636 29.183482 95.911221 27.202164 96.735948 25.23399 C 97.005381 24.52755 97.291243 23.811253 97.593533 23.094955 C 97.66582 22.937238 97.734821 22.782807 97.797251 22.625091 C 97.912253 22.365515 98.027255 22.099368 98.142257 21.826649 C 98.306545 21.369928 98.125828 21.130066 97.593533 21.110352 C 97.291243 21.110352 96.995524 21.110352 96.703091 21.110352 C 96.568374 21.110352 96.417229 21.110352 96.249655 21.110352 C 96.095224 21.130066 95.930935 21.149781 95.766647 21.172781 C 95.493928 21.192496 95.227781 21.202353 94.961634 21.202353 C 94.695487 21.202353 94.449054 21.136638 94.219051 20.998636 C 94.156621 20.978921 94.107334 20.939492 94.071191 20.883634 C 94.035048 20.82449 94.015333 20.758775 94.015333 20.686488 C 94.035048 20.647059 94.071191 20.597772 94.117192 20.538628 C 94.163193 20.48277 94.222336 20.443341 94.297909 20.420341 C 94.524627 20.328339 94.764488 20.259338 95.014206 20.219909 C 95.661502 20.187051 96.302227 20.160765 96.93638 20.141051 C 97.186098 20.141051 97.406245 20.141051 97.593533 20.141051 C 98.010826 20.141051 98.319688 20.124622 98.523406 20.09505 C 98.727123 20.062192 98.891412 19.953762 99.016271 19.766473 C 99.14113 19.579184 99.285704 19.290037 99.453278 18.905602 C 99.545279 18.698599 99.660281 18.468595 99.798283 18.218877 C 100.140003 17.489436 100.485009 16.743567 100.826728 15.984555 C 100.984445 15.63955 101.145448 15.307687 101.313022 14.985682 C 101.447738 14.660391 101.661313 14.410673 101.953747 14.233241 C 102.233037 14.098525 102.479469 14.108382 102.686473 14.266099 C 102.748902 14.308814 102.798189 14.374529 102.834332 14.469816 C 102.873761 14.561818 102.89019 14.647248 102.89019 14.719535 C 102.89019 15.123684 102.785046 15.524548 102.578042 15.922125 C 102.535327 16.00427 102.489327 16.102843 102.436754 16.217845 C 102.302038 16.592422 102.157464 16.973571 101.999747 17.358006 C 101.697457 18.067731 101.411595 18.7906 101.142162 19.529898 C 101.066589 19.6679 101.066589 19.786188 101.132305 19.891332 C 101.201306 19.993191 101.303165 20.045763 101.437881 20.045763 C 102.177179 20.068764 102.900047 20.078621 103.609773 20.078621 C 103.974493 20.078621 104.339214 20.078621 104.703934 20.078621 C 105.847381 20.098336 106.307388 20.259338 106.077384 20.561629 C 105.922953 20.73906 105.752093 20.840919 105.571376 20.867205 C 105.387373 20.893491 105.20337 20.890205 105.016082 20.860634 C 104.90108 20.860634 104.786078 20.860634 104.671076 20.860634 C 103.504629 20.93292 102.348039 20.978921 101.204592 20.998636 C 100.672297 20.998636 100.317434 21.238497 100.140003 21.718219 C 99.952714 22.178226 99.771997 22.634948 99.594566 23.094955 C 99.331704 23.699536 99.088558 24.287689 98.858554 24.859412 C 98.631836 25.401564 98.401832 25.947001 98.171829 26.49901 C 97.577105 27.895461 97.005381 29.298484 96.453372 30.701506 C 96.108367 31.618235 95.838934 32.557965 95.641788 33.514123 C 95.201495 35.25558 95.875077 35.92259 97.655963 35.515155 C 99.407277 35.097863 101.240735 33.839414 103.156337 31.733237 C 103.990922 31.204229 104.207783 31.44409 103.813491 32.45282 Z M 115.609395 32.718967 C 115.422106 32.886542 115.22496 33.037687 115.014671 33.172403 C 114.34766 33.589696 113.746365 33.918272 113.210785 34.154848 C 112.675205 34.394709 112.041052 34.641141 111.311612 34.890859 C 110.230594 35.212865 109.534011 35.140578 109.225149 34.670713 C 108.919573 34.204134 108.870286 33.553552 109.07729 32.718967 C 109.369723 31.532805 109.540583 30.662077 109.586584 30.110068 C 109.632584 29.558059 109.451867 29.367485 109.037861 29.538345 C 108.62714 29.71249 107.881271 30.280928 106.796967 31.250229 C 105.285514 32.551393 103.994208 34.043132 102.923048 35.718873 C 102.785046 35.948877 102.620757 36.136165 102.420325 36.280739 C 102.223179 36.428599 101.980033 36.500885 101.687599 36.500885 C 101.405023 36.500885 101.204592 36.428599 101.079732 36.280739 C 100.951588 36.136165 100.948302 35.939019 101.063304 35.686015 C 101.677742 34.332279 102.308609 32.9884 102.95262 31.657665 C 104.056638 29.344484 105.144226 27.041162 106.218672 24.750982 C 107.0204 23.032526 107.812269 21.314069 108.594282 19.592327 C 109.074004 18.583597 109.540583 17.571581 110.00059 16.56285 C 110.043305 16.480706 110.089306 16.39199 110.141878 16.296703 C 110.181308 16.181701 110.230594 16.066699 110.289738 15.951697 C 110.345596 15.839981 110.411311 15.715122 110.483598 15.57712 C 110.546028 15.462118 110.664315 15.370117 110.835175 15.29783 C 111.009321 15.225543 111.180181 15.176256 111.351041 15.156542 C 111.521901 15.136827 111.656617 15.146684 111.748619 15.186114 C 111.886621 15.281401 111.962193 15.379974 111.975336 15.485118 C 111.991765 15.586977 111.975336 15.698693 111.922764 15.813695 C 111.899764 15.83341 111.889907 15.869553 111.889907 15.922125 C 111.682903 16.536564 111.462757 17.131288 111.232753 17.703011 C 109.911875 20.890205 108.469423 24.031399 106.905398 27.126592 C 106.790396 27.333595 106.655679 27.583313 106.501248 27.875747 C 106.271245 28.293039 106.05767 28.700474 105.860524 29.101338 C 105.660092 29.502201 105.597662 29.771634 105.663378 29.906351 C 105.732379 30.041067 106.041241 29.935923 106.59325 29.594203 C 106.760824 29.479201 106.911969 29.364199 107.046686 29.249197 C 107.483693 28.956764 107.917414 28.68076 108.344564 28.421184 C 108.719141 28.171466 109.136434 28.036749 109.593155 28.017035 C 110.687316 27.941462 111.301754 28.437613 111.436471 29.498916 C 111.489043 29.926065 111.472614 30.349929 111.39047 30.767222 C 111.308326 31.181228 111.209753 31.595235 111.094751 31.999384 C 111.071751 32.114386 111.052036 32.229388 111.032321 32.34439 C 110.845033 33.05083 110.894319 33.458265 111.180181 33.56341 C 111.466043 33.665268 111.866906 33.60941 112.382772 33.389264 C 112.898637 33.172403 113.421074 32.906256 113.953368 32.594108 C 114.318088 32.406819 114.636808 32.245817 114.912812 32.107815 C 115.188817 31.973098 115.39582 31.91724 115.530537 31.936955 C 115.780255 31.97967 115.895257 32.081529 115.875542 32.242531 C 115.852542 32.403534 115.767112 32.561251 115.609395 32.718967 Z M 226.359464 50.389823 C 226.402179 50.412824 226.428465 50.458824 226.444894 50.531111 C 226.461323 50.603398 226.467894 50.662542 226.467894 50.701971 C 226.438322 50.777544 226.402179 50.833402 226.359464 50.876117 C 226.316749 50.915546 226.270748 50.95169 226.218176 50.984547 C 226.011173 51.066691 225.807455 51.099549 225.610309 51.076549 C 225.40002 51.076549 225.202874 51.066691 225.015585 51.046977 C 224.920298 51.027262 224.844725 51.014119 224.782296 51.014119 C 223.812994 50.922118 222.850265 50.816973 221.890821 50.701971 C 219.64007 50.475253 217.405748 50.255107 215.187856 50.048104 C 210.873643 49.660383 206.556145 49.308806 202.235361 48.983515 C 196.182978 48.566223 190.120738 48.244217 184.045354 48.014214 C 179.691713 47.859783 175.338071 47.744781 170.984429 47.672494 C 170.504707 47.649494 170.0217 47.639636 169.53212 47.639636 C 169.032684 47.639636 168.543104 47.629779 168.063382 47.610064 C 165.102906 47.537777 162.145716 47.501634 159.188525 47.501634 L 159.126096 47.501634 C 157.384639 47.501634 155.656326 47.537777 153.937869 47.610064 C 153.290573 47.629779 152.662992 47.639636 152.045267 47.639636 C 151.266541 47.662637 150.474671 47.813782 149.672943 48.093072 C 143.65999 50.199249 137.587892 51.743559 131.453364 52.735861 C 129.682336 53.025009 127.917879 53.271441 126.156708 53.468587 C 124.395536 53.665733 122.631079 53.764306 120.860051 53.764306 C 120.285042 53.764306 119.713318 53.754449 119.141595 53.734734 C 118.277438 53.734734 117.442853 53.619732 116.641126 53.389729 C 116.319121 53.317442 116.01683 53.212297 115.734254 53.077581 C 115.484536 52.985579 115.274247 52.850863 115.100101 52.680003 C 114.929241 52.509143 114.853669 52.269282 114.873383 51.970277 C 114.925955 51.677844 115.0541 51.428126 115.257818 51.217837 C 115.461535 51.010833 115.691539 50.839973 115.954401 50.701971 C 116.756128 50.24525 117.60057 49.936387 118.484441 49.781956 C 118.921448 49.666955 119.368313 49.56181 119.82832 49.469809 C 121.316773 49.124803 122.818368 48.838941 124.326535 48.608938 C 130.378919 47.711923 136.411587 47.130342 142.421255 46.860909 C 142.785975 46.828052 143.140838 46.801766 143.485844 46.782051 C 145.339017 46.686764 147.192189 46.607905 149.045362 46.545476 C 149.712373 46.525761 150.379383 46.400902 151.046394 46.170898 C 153.33986 45.316599 155.597182 44.363726 157.821646 43.312281 C 160.042825 42.260835 162.218003 41.068102 164.343894 39.73408 C 166.114923 38.66292 167.744663 37.391328 169.233116 35.92259 C 170.077558 35.120863 170.764283 34.213991 171.296577 33.201975 C 172.006303 31.733237 171.874872 30.464931 170.905571 29.390485 C 170.218846 28.68076 169.407261 28.128751 168.467532 27.734459 C 167.228798 27.162735 165.940777 26.702728 164.600184 26.361008 C 163.262877 26.016002 161.905855 25.720283 160.532404 25.467279 C 156.635484 24.833126 152.662992 24.44212 148.608355 24.297546 C 148.463781 24.297546 148.322493 24.297546 148.187777 24.297546 C 148.03006 24.297546 147.869057 24.297546 147.701483 24.297546 C 147.359763 24.350118 147.100188 24.557122 146.922756 24.921842 C 146.827469 25.079559 146.745325 25.230704 146.673038 25.375278 C 146.495607 25.720283 146.311604 26.062003 146.124315 26.407009 C 144.688435 29.311627 143.25584 32.209673 141.826531 35.094577 C 140.640369 37.552331 139.437779 39.993656 138.218759 42.421838 C 138.199044 42.517125 138.166187 42.592698 138.123472 42.655127 C 137.978898 42.957418 137.817895 43.24328 137.640464 43.515998 C 137.433461 43.746002 137.1936 43.838004 136.920881 43.795289 C 136.756593 43.818289 136.592304 43.808432 136.437873 43.765717 C 136.155297 43.621143 136.063296 43.400997 136.155297 43.108563 C 136.405016 42.464553 136.68102 41.833686 136.983311 41.219247 C 138.797054 37.365042 140.610798 33.527266 142.421255 29.702633 C 143.015979 28.483613 143.59756 27.271165 144.172569 26.062003 C 144.211998 25.947001 144.261285 25.845142 144.313857 25.749855 C 144.448574 25.467279 144.573433 25.191275 144.688435 24.921842 C 144.842866 24.504549 144.718007 24.287689 144.313857 24.264688 C 144.103568 24.244974 143.896565 24.235116 143.686276 24.235116 C 143.416843 24.212116 143.150696 24.192402 142.89112 24.172687 C 142.848405 24.172687 142.792547 24.172687 142.72026 24.172687 C 142.404826 24.139829 142.112393 24.087257 141.836389 24.008399 C 141.560384 23.92954 141.396096 23.719251 141.343524 23.374245 C 141.343524 22.989811 141.474954 22.703949 141.741101 22.51666 C 142.007249 22.329372 142.302968 22.178226 142.624973 22.063224 C 142.739975 22.020509 142.845119 21.990938 142.937121 21.967937 C 143.801278 21.603217 144.681863 21.281212 145.578878 20.998636 C 145.670879 20.959207 145.776024 20.926349 145.891025 20.906634 C 146.577751 20.696345 147.093616 20.259338 147.438622 19.592327 C 148.969789 16.687709 150.504243 13.786377 152.045267 10.891616 C 152.567704 9.889457 153.103284 8.874155 153.655293 7.842424 C 153.72758 7.69785 153.796581 7.556562 153.859011 7.421846 C 153.993727 7.129412 154.15473 6.843551 154.345304 6.560975 C 154.572022 6.219255 154.871027 6.084539 155.235747 6.156825 C 155.400036 6.133825 155.561038 6.146968 155.718755 6.186397 C 156.063761 6.344114 156.165619 6.610261 156.030903 6.984839 C 156.030903 7.004553 156.021046 7.014411 156.001331 7.014411 C 155.73847 7.796423 155.426322 8.55215 155.061602 9.28159 C 154.167873 11.042761 153.251144 12.807218 152.311415 14.578247 C 152.022267 15.172971 151.713405 15.764409 151.3914 16.359133 C 151.223826 16.661423 151.062823 16.957142 150.905106 17.249575 C 150.635673 17.758869 150.369526 18.274735 150.109951 18.797172 C 150.109951 18.797172 150.100093 18.813601 150.077093 18.843173 C 150.037664 18.928602 150.00152 19.014032 149.975234 19.10932 C 149.948948 19.204607 149.994949 19.270322 150.109951 19.313037 C 150.182237 19.342609 150.254524 19.368895 150.326811 19.391896 L 150.389241 19.359038 C 150.527243 19.329466 150.678388 19.290037 150.842677 19.250608 C 150.885392 19.227607 150.928107 19.207893 150.967536 19.188178 C 155.988188 17.604438 161.005555 15.96484 166.016349 14.266099 C 171.027144 12.567357 176.005082 10.743756 180.953447 8.795296 C 181.068449 8.755867 181.170308 8.72301 181.265595 8.703295 C 182.777048 8.078999 184.281929 7.451418 185.780239 6.82055 C 187.281835 6.189683 188.767002 5.509529 190.235739 4.780089 C 191.326614 4.25108 192.358345 3.620213 193.327646 2.890773 C 195.391108 1.215032 195.479824 -0.286564 193.593794 -1.610728 C 192.709922 -2.212024 191.740621 -2.675317 190.695747 -2.99075 C 189.647587 -3.30947 188.579713 -3.536188 187.485552 -3.670904 C 184.870082 -4.068482 182.225039 -4.265628 179.547139 -4.265628 L 179.501138 -4.265628 C 176.915239 -4.245914 174.30634 -4.121054 171.671155 -3.891051 C 165.829061 -3.381757 159.993538 -2.389455 154.171159 -0.920717 C 148.808787 0.400161 143.548273 2.207333 138.389619 4.500799 C 137.035883 5.092237 135.71829 5.772391 134.436841 6.531403 C 134.072121 6.761407 133.707401 6.96841 133.342681 7.155699 C 133.135677 7.241129 132.938531 7.260843 132.751242 7.218128 C 132.501524 7.260843 132.297807 7.191842 132.14009 7.014411 C 132.025088 6.850122 132.021802 6.698977 132.123661 6.560975 C 132.228805 6.426258 132.360236 6.311256 132.514667 6.219255 C 133.618685 5.437242 134.765418 4.78666 135.95158 4.264224 C 135.97458 4.264224 135.994295 4.254366 136.014009 4.234652 C 140.88023 1.941186 145.854882 0.111014 150.937964 -1.265723 C 158.271796 -3.28647 165.641772 -4.548204 173.047891 -5.047641 C 175.338071 -5.211929 177.618393 -5.297359 179.892144 -5.297359 C 182.359755 -5.317074 184.807652 -5.192214 187.235834 -4.922782 C 189.526014 -4.692778 191.704477 -4.160484 193.764653 -3.329184 C 194.733955 -2.964464 195.571825 -2.415741 196.281551 -1.686301 C 196.876275 -1.042291 197.139136 -0.329279 197.070135 0.446162 C 197.001134 1.221603 196.626557 1.990473 195.936546 2.749485 C 195.062531 3.623499 194.089944 4.349653 193.015499 4.921377 C 191.714335 5.650817 190.386885 6.311256 189.029863 6.90598 C 187.676127 7.500704 186.312533 8.072428 184.939083 8.624437 C 184.896368 8.647437 184.837224 8.670437 184.764937 8.703295 C 179.974289 10.67147 175.144211 12.498356 170.274704 14.180669 C 165.405197 15.862982 160.515975 17.482865 155.610325 19.04689 C 154.785597 19.316323 153.964155 19.592327 153.139428 19.874903 C 151.995981 20.259338 150.849248 20.633916 149.702515 20.998636 C 149.203079 21.113638 148.802215 21.389642 148.499925 21.826649 C 148.250206 22.243942 148.141776 22.569233 148.171348 22.79595 C 148.204206 23.025954 148.463781 23.150813 148.95336 23.170528 C 150.254524 23.213243 151.555688 23.282244 152.860138 23.374245 C 152.952139 23.374245 153.037569 23.374245 153.109856 23.374245 C 155.577467 23.531962 158.015506 23.794824 160.420688 24.16283 C 162.829155 24.534121 165.178479 25.072987 167.468659 25.782713 C 168.457675 26.104718 169.410547 26.469438 170.327276 26.873588 C 170.941715 27.156164 171.526581 27.501169 172.07859 27.905318 C 174.444342 29.738777 174.615202 32.045385 172.594455 34.82843 C 171.927445 35.745159 171.161861 36.579744 170.297704 37.328899 C 168.161955 39.162357 165.86849 40.746097 163.420593 42.076832 C 161.307845 43.24328 159.162239 44.324297 156.983775 45.313313 C 156.734057 45.395457 156.474482 45.510459 156.201763 45.655033 C 156.067046 45.717462 155.915901 45.786464 155.751613 45.85875 C 155.886329 46.069039 156.011188 46.193899 156.12619 46.233328 C 156.241192 46.276043 156.369337 46.2859 156.517197 46.266186 C 156.517197 46.266186 156.527054 46.266186 156.546768 46.266186 C 156.931203 46.2859 157.305781 46.295757 157.670501 46.295757 L 157.719787 46.295757 C 157.969506 46.295757 158.219224 46.2859 158.468942 46.266186 C 159.615675 46.266186 160.759122 46.266186 161.905855 46.266186 C 168.707393 46.2859 175.479359 46.437045 182.218468 46.719621 C 189.5523 46.96934 196.853275 47.416204 204.124677 48.0635 C 206.437857 48.260646 208.751038 48.464364 211.060932 48.671367 C 213.853834 48.901371 216.640165 49.141232 219.423209 49.39095 C 221.046378 49.558524 222.662976 49.75567 224.26643 49.985674 C 224.650865 50.025103 225.051729 50.07439 225.469021 50.123676 C 225.761454 50.166391 226.057173 50.255107 226.359464 50.389823 Z M 145.54602 22.92081 C 145.588735 22.901095 145.63145 22.85838 145.680736 22.789379 C 145.726737 22.720378 145.759595 22.667806 145.782595 22.625091 C 145.782595 22.572518 145.769452 22.536375 145.749737 22.51666 C 145.730023 22.49366 145.693879 22.457516 145.641307 22.404944 C 145.641307 22.404944 145.63145 22.395087 145.608449 22.375372 C 145.358731 22.427945 145.128727 22.552804 144.921724 22.74995 C 144.879009 22.802522 144.865866 22.85838 144.875723 22.914238 C 144.885581 22.970096 144.928296 22.999668 145.000583 22.999668 C 145.178014 22.999668 145.358731 22.973382 145.54602 22.92081 Z M 143.827564 48.579366 C 143.870279 48.546508 143.916279 48.530079 143.968852 48.530079 C 144.050996 48.510365 144.139712 48.470935 144.234999 48.415077 C 144.327 48.355933 144.396001 48.270504 144.438716 48.155502 C 144.396001 48.0635 144.353286 48.004356 144.313857 47.984642 C 144.281 47.984642 144.254713 47.984642 144.234999 47.984642 C 138.69191 48.23436 133.135677 48.704225 127.563016 49.39095 C 124.812829 49.712955 122.072499 50.228821 119.345312 50.938546 C 119.282883 50.968118 119.213882 50.994405 119.141595 51.014119 C 118.661873 51.109406 118.228151 51.303267 117.843717 51.592414 C 117.748429 51.667987 117.689286 51.746845 117.662999 51.835561 C 117.636713 51.924277 117.682714 52.006421 117.797716 52.078708 C 118.024434 52.170709 118.270866 52.249568 118.530442 52.311997 C 119.417599 52.479571 120.317899 52.561715 121.234628 52.561715 C 122.016641 52.561715 122.795368 52.525572 123.57738 52.453285 C 130.359204 51.881562 137.10817 50.586969 143.827564 48.579366 Z M 189.12515 31.851525 C 189.259867 32.117672 189.036434 32.521821 188.451568 33.070544 C 187.869987 33.615982 186.844828 34.279707 185.37609 35.061719 C 184.824081 35.291723 184.423217 35.47244 184.173499 35.610443 C 183.920495 35.745159 183.739778 35.916019 183.624776 36.126308 C 183.509774 36.333311 183.384915 36.655316 183.250198 37.092324 C 183.135197 37.417614 182.984051 37.84805 182.796763 38.390202 C 182.547044 39.057212 182.297326 39.743938 182.047608 40.453663 C 181.5876 41.899401 181.045449 43.331995 180.414581 44.74159 C 179.783714 46.154469 178.968844 47.386632 177.969971 48.438078 C 176.967812 49.489523 175.683077 50.186106 174.109194 50.531111 C 172.525454 50.833402 170.994287 50.879403 169.515692 50.672399 C 168.037096 50.46211 166.588073 50.051389 165.171907 49.436951 C 164.600184 49.177375 164.084318 48.83237 163.624311 48.40522 C 162.865299 47.626493 162.806155 46.749193 163.453451 45.779892 C 163.798457 45.303456 164.19932 44.869734 164.656042 44.4853 C 165.572771 43.746002 166.532215 43.069134 167.531088 42.454696 C 169.397404 41.327677 171.303149 40.295947 173.251609 39.359503 C 175.196783 38.423059 177.168243 37.516187 179.156132 36.642173 C 179.290849 36.579744 179.441994 36.510743 179.609568 36.438456 C 180.15172 36.188738 180.707015 35.939019 181.282024 35.686015 C 181.676316 35.541441 181.942463 35.275294 182.07718 34.890859 C 182.119894 34.756143 182.129752 34.631284 182.110037 34.516282 C 182.087037 34.443995 182.050893 34.40128 181.99175 34.391423 C 181.935892 34.381566 181.870176 34.394709 181.797889 34.437424 C 181.597458 34.552425 181.397026 34.683856 181.186737 34.82843 C 181.071735 34.890859 180.946876 34.969718 180.812159 35.061719 C 180.092576 35.479012 179.349993 35.663015 178.577837 35.610443 C 177.358818 35.610443 176.741094 35.061719 176.718093 33.967559 C 176.698379 33.07383 176.85281 32.222817 177.178101 31.421089 C 177.506677 30.619362 177.973256 29.863636 178.577837 29.157196 C 178.640267 29.084909 178.728983 29.022479 178.843985 28.976479 C 178.958986 28.930478 179.073988 28.894334 179.18899 28.87462 C 179.208705 28.87462 179.234991 28.864762 179.264563 28.845048 C 179.494567 28.822047 179.671998 28.881191 179.796857 29.015908 C 179.921716 29.150624 179.948002 29.321484 179.875716 29.531773 C 179.740999 29.824206 179.602997 30.119926 179.46828 30.422216 C 179.353279 30.65222 179.238277 30.878938 179.126561 31.108941 C 178.666553 32.005956 178.45955 32.9424 178.498979 33.921558 C 178.521979 34.131847 178.610695 34.279707 178.774983 34.374994 C 178.935986 34.470281 179.119989 34.470281 179.326992 34.374994 C 179.941431 34.125276 180.480297 33.770413 180.937018 33.313691 C 182.175753 32.186673 183.197626 30.892081 183.999353 29.423343 C 184.114355 29.213054 184.245786 29.035622 184.396931 28.891049 C 184.548076 28.743189 184.748508 28.661045 185.001512 28.64133 C 185.323518 28.608473 185.56995 28.68076 185.74081 28.851619 C 185.914956 29.022479 185.964242 29.249197 185.891955 29.531773 C 185.599522 30.468217 185.29066 31.394803 184.968655 32.311532 C 184.94894 32.383819 184.922654 32.45282 184.889796 32.51525 C 184.807652 32.725539 184.728794 32.9424 184.656507 33.172403 C 184.58422 33.402407 184.548076 33.602839 184.548076 33.773699 C 184.548076 33.944559 184.620363 34.029988 184.764937 34.029988 C 185.339946 33.918272 186.174531 33.458265 187.271977 32.656538 C 188.372709 31.854811 188.990434 31.585378 189.12515 31.851525 Z M 180.937018 38.124054 C 180.937018 38.071482 180.953447 38.025481 180.983019 37.982766 C 181.045449 37.87105 181.084878 37.746191 181.094735 37.608189 C 181.104592 37.473473 181.068449 37.332185 180.983019 37.187611 C 180.910732 37.187611 180.854874 37.187611 180.812159 37.187611 C 180.667585 37.217183 180.536155 37.256612 180.421153 37.296041 C 180.191149 37.391328 179.964431 37.493187 179.734428 37.608189 C 177.900969 38.452631 176.067511 39.323359 174.234053 40.220374 C 172.400595 41.114103 170.60328 42.066975 168.842109 43.078991 C 167.770949 43.69343 166.758933 44.413013 165.812632 45.234455 C 165.040477 45.92118 164.672471 46.522475 164.702043 47.038341 C 164.7349 47.554206 165.188336 48.020785 166.06235 48.438078 C 168.053525 49.469809 170.19256 49.890387 172.482739 49.703098 C 174.046765 49.545381 175.315071 48.957229 176.287658 47.938641 C 177.263531 46.916767 178.058686 45.694462 178.679696 44.275011 C 179.300706 42.852273 179.839572 41.432822 180.296294 40.016656 C 180.49344 39.349646 180.707015 38.718778 180.937018 38.124054 Z M 311.562693 50.389823 C 311.605408 50.412824 311.631694 50.458824 311.648123 50.531111 C 311.664552 50.603398 311.671123 50.662542 311.671123 50.701971 C 311.641551 50.777544 311.605408 50.833402 311.562693 50.876117 C 311.519978 50.915546 311.473977 50.95169 311.421405 50.984547 C 311.214402 51.066691 311.010684 51.099549 310.813538 51.076549 C 310.603249 51.076549 310.406103 51.066691 310.218814 51.046977 C 310.123527 51.027262 310.047954 51.014119 309.985525 51.014119 C 309.016223 50.922118 308.053494 50.816973 307.09405 50.701971 C 304.843299 50.475253 302.608977 50.255107 300.391085 50.048104 C 296.076872 49.660383 291.759374 49.308806 287.43859 48.983515 C 281.386207 48.566223 275.323967 48.244217 269.248583 48.014214 C 264.894942 47.859783 260.5413 47.744781 256.187659 47.672494 C 255.707937 47.649494 255.224929 47.639636 254.735349 47.639636 C 254.235913 47.639636 253.746334 47.629779 253.266611 47.610064 C 250.306135 47.537777 247.348945 47.501634 244.391754 47.501634 L 244.329325 47.501634 C 242.587868 47.501634 240.859555 47.537777 239.141098 47.610064 C 238.493802 47.629779 237.866221 47.639636 237.248496 47.639636 C 236.46977 47.662637 235.6779 47.813782 234.876173 48.093072 C 228.863219 50.199249 222.791121 51.743559 216.656593 52.735861 C 214.885565 53.025009 213.121108 53.271441 211.359937 53.468587 C 209.598766 53.665733 207.834309 53.764306 206.06328 53.764306 C 205.488271 53.764306 204.916547 53.754449 204.344824 53.734734 C 203.480667 53.734734 202.646082 53.619732 201.844355 53.389729 C 201.52235 53.317442 201.220059 53.212297 200.937483 53.077581 C 200.687765 52.985579 200.477476 52.850863 200.30333 52.680003 C 200.13247 52.509143 200.056898 52.269282 200.076612 51.970277 C 200.129184 51.677844 200.257329 51.428126 200.461047 51.217837 C 200.664765 51.010833 200.894768 50.839973 201.15763 50.701971 C 201.959357 50.24525 202.800513 49.936387 203.68767 49.781956 C 204.124677 49.666955 204.571542 49.56181 205.031549 49.469809 C 206.520002 49.124803 208.021597 48.838941 209.529764 48.608938 C 215.582148 47.711923 221.614816 47.130342 227.624484 46.860909 C 227.989204 46.828052 228.344067 46.801766 228.689073 46.782051 C 230.542246 46.686764 232.395418 46.607905 234.248591 46.545476 C 234.915602 46.525761 235.582612 46.400902 236.249623 46.170898 C 238.543089 45.316599 240.800411 44.363726 243.024875 43.312281 C 245.246054 42.260835 247.421232 41.068102 249.547123 39.73408 C 251.318152 38.66292 252.947892 37.391328 254.436345 35.92259 C 255.280787 35.120863 255.967512 34.213991 256.499806 33.201975 C 257.209532 31.733237 257.078101 30.464931 256.1088 29.390485 C 255.422075 28.68076 254.61049 28.128751 253.670761 27.734459 C 252.432027 27.162735 251.144006 26.702728 249.803413 26.361008 C 248.466106 26.016002 247.109084 25.720283 245.735633 25.467279 C 241.838713 24.833126 237.866221 24.44212 233.811584 24.297546 C 233.66701 24.297546 233.525722 24.297546 233.391006 24.297546 C 233.233289 24.297546 233.072286 24.297546 232.904712 24.297546 C 232.562992 24.350118 232.303417 24.557122 232.125985 24.921842 C 232.030698 25.079559 231.948554 25.230704 231.876267 25.375278 C 231.698836 25.720283 231.514833 26.062003 231.327544 26.407009 C 229.891664 29.311627 228.459069 32.209673 227.02976 35.094577 C 225.843599 37.552331 224.641008 39.993656 223.421988 42.421838 C 223.402273 42.517125 223.369416 42.592698 223.326701 42.655127 C 223.182127 42.957418 223.021124 43.24328 222.843693 43.515998 C 222.63669 43.746002 222.396829 43.838004 222.12411 43.795289 C 221.959822 43.818289 221.795533 43.808432 221.641102 43.765717 C 221.358526 43.621143 221.266525 43.400997 221.358526 43.108563 C 221.608245 42.464553 221.884249 41.833686 222.18654 41.219247 C 224.000283 37.365042 225.814027 33.527266 227.624484 29.702633 C 228.219208 28.483613 228.800789 27.271165 229.375798 26.062003 C 229.415227 25.947001 229.464514 25.845142 229.517086 25.749855 C 229.651803 25.467279 229.776662 25.191275 229.891664 24.921842 C 230.046095 24.504549 229.921236 24.287689 229.517086 24.264688 C 229.306797 24.244974 229.099794 24.235116 228.889505 24.235116 C 228.620072 24.212116 228.353925 24.192402 228.094349 24.172687 C 228.051634 24.172687 227.995776 24.172687 227.923489 24.172687 C 227.608055 24.139829 227.315622 24.087257 227.039618 24.008399 C 226.763613 23.92954 226.599325 23.719251 226.546753 23.374245 C 226.546753 22.989811 226.678183 22.703949 226.944331 22.51666 C 227.210478 22.329372 227.506197 22.178226 227.828202 22.063224 C 227.943204 22.020509 228.048348 21.990938 228.14035 21.967937 C 229.004507 21.603217 229.885092 21.281212 230.782107 20.998636 C 230.874108 20.959207 230.979253 20.926349 231.094254 20.906634 C 231.78098 20.696345 232.296845 20.259338 232.641851 19.592327 C 234.173018 16.687709 235.707472 13.786377 237.248496 10.891616 C 237.770933 9.889457 238.306513 8.874155 238.858522 7.842424 C 238.930809 7.69785 238.99981 7.556562 239.06224 7.421846 C 239.196956 7.129412 239.357959 6.843551 239.545248 6.560975 C 239.775251 6.219255 240.074256 6.084539 240.438976 6.156825 C 240.603265 6.133825 240.764267 6.146968 240.921984 6.186397 C 241.26699 6.344114 241.368848 6.610261 241.234132 6.984839 C 241.234132 7.004553 241.224275 7.014411 241.20456 7.014411 C 240.941699 7.796423 240.629551 8.55215 240.264831 9.28159 C 239.371102 11.042761 238.454373 12.807218 237.514644 14.578247 C 237.225496 15.172971 236.916634 15.764409 236.594629 16.359133 C 236.427055 16.661423 236.266052 16.957142 236.108335 17.249575 C 235.838902 17.758869 235.572755 18.274735 235.31318 18.797172 C 235.31318 18.797172 235.303322 18.813601 235.280322 18.843173 C 235.240893 18.928602 235.204749 19.014032 235.178463 19.10932 C 235.152177 19.204607 235.198178 19.270322 235.31318 19.313037 C 235.385466 19.342609 235.457753 19.368895 235.53004 19.391896 L 235.59247 19.359038 C 235.730472 19.329466 235.881617 19.290037 236.045906 19.250608 C 236.088621 19.227607 236.131336 19.207893 236.170765 19.188178 C 241.191417 17.604438 246.208784 15.96484 251.219579 14.266099 C 256.230374 12.567357 261.208311 10.743756 266.156676 8.795296 C 266.271678 8.755867 266.373537 8.72301 266.468824 8.703295 C 267.980277 8.078999 269.485158 7.451418 270.983468 6.82055 C 272.485064 6.189683 273.970231 5.509529 275.438969 4.780089 C 276.529843 4.25108 277.561574 3.620213 278.530875 2.890773 C 280.594337 1.215032 280.683053 -0.286564 278.797023 -1.610728 C 277.909865 -2.212024 276.94385 -2.675317 275.898976 -2.99075 C 274.850816 -3.30947 273.779656 -3.536188 272.688781 -3.670904 C 270.073311 -4.068482 267.428268 -4.265628 264.750368 -4.265628 L 264.704367 -4.265628 C 262.118468 -4.245914 259.509569 -4.121054 256.874384 -3.891051 C 251.03229 -3.381757 245.196767 -2.389455 239.374388 -0.920717 C 234.012016 0.400161 228.751502 2.207333 223.592848 4.500799 C 222.239112 5.092237 220.921519 5.772391 219.64007 6.531403 C 219.27535 6.761407 218.91063 6.96841 218.54591 7.155699 C 218.338906 7.241129 218.14176 7.260843 217.954471 7.218128 C 217.704753 7.260843 217.501036 7.191842 217.343319 7.014411 C 217.228317 6.850122 217.225031 6.698977 217.32689 6.560975 C 217.432035 6.426258 217.563465 6.311256 217.717896 6.219255 C 218.821914 5.437242 219.968647 4.78666 221.154809 4.264224 C 221.177809 4.264224 221.197524 4.254366 221.217238 4.234652 C 226.08346 1.941186 231.058111 0.111014 236.141193 -1.265723 C 243.475025 -3.28647 250.845001 -4.548204 258.25112 -5.047641 C 260.5413 -5.211929 262.821622 -5.297359 265.095373 -5.297359 C 267.562985 -5.317074 270.010881 -5.192214 272.439063 -4.922782 C 274.729243 -4.692778 276.907706 -4.160484 278.967882 -3.329184 C 279.937184 -2.964464 280.775054 -2.415741 281.48478 -1.686301 C 282.079504 -1.042291 282.342365 -0.329279 282.273364 0.446162 C 282.204363 1.221603 281.8265 1.990473 281.139775 2.749485 C 280.265761 3.623499 279.293173 4.349653 278.218728 4.921377 C 276.917564 5.650817 275.590114 6.311256 274.233092 6.90598 C 272.879356 7.500704 271.515762 8.072428 270.139026 8.624437 C 270.099597 8.647437 270.040453 8.670437 269.968166 8.703295 C 265.177518 10.67147 260.34744 12.498356 255.477933 14.180669 C 250.60514 15.862982 245.719204 17.482865 240.813554 19.04689 C 239.988826 19.316323 239.167384 19.592327 238.342657 19.874903 C 237.19921 20.259338 236.052477 20.633916 234.905744 20.998636 C 234.406308 21.113638 234.005444 21.389642 233.703154 21.826649 C 233.453435 22.243942 233.345005 22.569233 233.374577 22.79595 C 233.407435 23.025954 233.66701 23.150813 234.15659 23.170528 C 235.457753 23.213243 236.758917 23.282244 238.063367 23.374245 C 238.155368 23.374245 238.240798 23.374245 238.313085 23.374245 C 240.780696 23.531962 243.218735 23.794824 245.623917 24.16283 C 248.032384 24.534121 250.381708 25.072987 252.671888 25.782713 C 253.660904 26.104718 254.613776 26.469438 255.530505 26.873588 C 256.144944 27.156164 256.72981 27.501169 257.281819 27.905318 C 259.644286 29.738777 259.818431 32.045385 257.797684 34.82843 C 257.130674 35.745159 256.36509 36.579744 255.500933 37.328899 C 253.365185 39.162357 251.071719 40.746097 248.623822 42.076832 C 246.511074 43.24328 244.365468 44.324297 242.187005 45.313313 C 241.937286 45.395457 241.677711 45.510459 241.404992 45.655033 C 241.270275 45.717462 241.11913 45.786464 240.951556 45.85875 C 241.089558 46.069039 241.214417 46.193899 241.329419 46.233328 C 241.441135 46.276043 241.572566 46.2859 241.71714 46.266186 C 241.71714 46.266186 241.730283 46.266186 241.749997 46.266186 C 242.134432 46.2859 242.50901 46.295757 242.87373 46.295757 L 242.923016 46.295757 C 243.172735 46.295757 243.422453 46.2859 243.672171 46.266186 C 244.818904 46.266186 245.962351 46.266186 247.109084 46.266186 C 253.910622 46.2859 260.682588 46.437045 267.421697 46.719621 C 274.755529 46.96934 282.056504 47.416204 289.327906 48.0635 C 291.641087 48.260646 293.954267 48.464364 296.264161 48.671367 C 299.057063 48.901371 301.843394 49.141232 304.626438 49.39095 C 306.249607 49.558524 307.866205 49.75567 309.469659 49.985674 C 309.854094 50.025103 310.254958 50.07439 310.67225 50.123676 C 310.964683 50.166391 311.260402 50.255107 311.562693 50.389823 Z M 230.749249 22.92081 C 230.791964 22.901095 230.834679 22.85838 230.883965 22.789379 C 230.929966 22.720378 230.962824 22.667806 230.985824 22.625091 C 230.985824 22.572518 230.972681 22.536375 230.952966 22.51666 C 230.933252 22.49366 230.897108 22.457516 230.844536 22.404944 C 230.844536 22.404944 230.834679 22.395087 230.811679 22.375372 C 230.56196 22.427945 230.331956 22.552804 230.124953 22.74995 C 230.082238 22.802522 230.069095 22.85838 230.078952 22.914238 C 230.08881 22.970096 230.131525 22.999668 230.203812 22.999668 C 230.381243 22.999668 230.56196 22.973382 230.749249 22.92081 Z M 229.030793 48.579366 C 229.073508 48.546508 229.119508 48.530079 229.172081 48.530079 C 229.254225 48.510365 229.342941 48.470935 229.438228 48.415077 C 229.530229 48.355933 229.59923 48.270504 229.641945 48.155502 C 229.59923 48.0635 229.556515 48.004356 229.517086 47.984642 C 229.484229 47.984642 229.457942 47.984642 229.438228 47.984642 C 223.895139 48.23436 218.338906 48.704225 212.766245 49.39095 C 210.016058 49.712955 207.275728 50.228821 204.545256 50.938546 C 204.482826 50.968118 204.417111 50.994405 204.344824 51.014119 C 203.865102 51.109406 203.431381 51.303267 203.046946 51.592414 C 202.951658 51.667987 202.892515 51.746845 202.866229 51.835561 C 202.839942 51.924277 202.885943 52.006421 203.000945 52.078708 C 203.227663 52.170709 203.474095 52.249568 203.733671 52.311997 C 204.620828 52.479571 205.521128 52.561715 206.437857 52.561715 C 207.21987 52.561715 207.998597 52.525572 208.780609 52.453285 C 215.562433 51.881562 222.311399 50.586969 229.030793 48.579366 Z M 269.564017 30.405787 C 269.46873 31.12537 269.130296 31.595235 268.545429 31.812096 C 267.963848 32.032242 267.773274 31.74638 267.976991 30.95451 C 268.180709 30.162641 267.82256 29.962209 266.905831 30.349929 C 265.989102 30.740936 265.233376 31.233801 264.641938 31.828524 C 263.725208 32.764968 262.910338 33.776984 262.203898 34.858002 C 262.131611 34.953289 262.072468 35.032147 262.029753 35.094577 C 261.822749 35.396868 261.615746 35.682729 261.405457 35.952162 C 261.27074 36.139451 261.113024 36.257739 260.929021 36.303739 C 260.748303 36.353026 260.561015 36.359597 260.373726 36.32674 C 260.196295 36.307025 260.061578 36.238024 259.969577 36.126308 C 259.874289 36.011306 259.864432 35.87659 259.936719 35.718873 C 260.051721 35.436297 260.186437 35.150435 260.344154 34.858002 C 261.280598 33.119831 262.23347 31.375089 263.202771 29.623775 C 263.222486 29.60406 263.235629 29.584345 263.235629 29.561345 C 263.370346 29.291912 263.531348 29.042194 263.718637 28.81219 C 263.92564 28.582186 264.165501 28.490185 264.43822 28.529614 C 264.707653 28.572329 264.891656 28.733332 264.983657 29.015908 C 265.098659 29.380628 265.197232 29.584345 265.282662 29.633632 C 265.364806 29.679633 265.552095 29.646775 265.844528 29.531773 C 266.468824 29.30177 267.076691 29.140767 267.671415 29.04548 C 268.266139 28.953478 268.752432 28.976479 269.133581 29.117767 C 269.511444 29.259055 269.656018 29.686204 269.564017 30.405787 Z M 278.780594 34.000417 C 278.176013 34.59514 277.472858 35.101149 276.671131 35.525013 C 275.869404 35.945591 275.199108 36.221595 274.656956 36.353026 C 274.114804 36.481171 273.556224 36.556743 272.9845 36.579744 C 272.067771 36.619173 271.223329 36.494314 270.45446 36.201881 C 269.192725 35.692587 268.755718 34.72 269.140153 33.280834 C 269.504873 32.042099 270.244171 31.072798 271.358046 30.376215 C 272.475207 29.676347 273.625225 29.337913 274.811387 29.360913 C 274.811387 29.360913 274.82453 29.360913 274.844245 29.360913 C 275.146535 29.337913 275.432397 29.360913 275.70183 29.423343 C 276.161837 29.587631 276.454271 29.86035 276.57913 30.234927 C 276.703989 30.609505 276.618559 31.026797 276.329411 31.483519 C 275.662401 32.495535 274.755529 33.057401 273.608796 33.172403 C 272.849784 33.24469 272.113772 33.208547 271.407332 33.063973 C 271.26933 33.040973 271.151042 33.077116 271.045898 33.172403 C 270.944039 33.264405 270.881609 33.379407 270.858609 33.514123 C 270.651606 34.411137 270.92761 34.982861 271.686622 35.235865 C 272.626352 35.55787 273.598939 35.55787 274.610955 35.235865 C 275.777403 34.871145 276.884706 34.181134 277.936152 33.172403 C 278.990883 32.160387 279.595464 31.690522 279.756467 31.756238 C 279.920755 31.825239 279.970041 32.022385 279.907612 32.34439 C 279.759752 32.853684 279.385175 33.405693 278.780594 34.000417 Z M 272.123629 31.483519 C 272.0612 31.555806 272.018485 31.63795 271.992199 31.726666 C 271.965913 31.815381 271.99877 31.89424 272.094058 31.969812 C 272.458778 32.176816 272.85307 32.252388 273.280219 32.19653 C 273.707369 32.137387 274.068804 31.976384 274.367808 31.710237 C 274.663527 31.44409 274.791672 31.118799 274.748957 30.734364 C 274.719385 30.599648 274.647099 30.514218 274.532097 30.478074 C 274.417095 30.438645 274.302093 30.432073 274.187091 30.451788 C 273.418222 30.58979 272.728211 30.93151 272.123629 31.483519 Z M 287.875597 34.000417 C 287.271016 34.59514 286.567862 35.101149 285.766135 35.525013 C 284.964408 35.945591 284.290825 36.221595 283.748674 36.353026 C 283.209808 36.481171 282.651227 36.556743 282.079504 36.579744 C 281.162775 36.619173 280.318333 36.494314 279.546177 36.201881 C 278.287729 35.692587 277.847436 34.72 278.235156 33.280834 C 278.599877 32.042099 279.339174 31.072798 280.453049 30.376215 C 281.566924 29.676347 282.720229 29.337913 283.906391 29.360913 C 283.906391 29.360913 283.916248 29.360913 283.935962 29.360913 C 284.238253 29.337913 284.527401 29.360913 284.796833 29.423343 C 285.256841 29.587631 285.545988 29.86035 285.670848 30.234927 C 285.795707 30.609505 285.713563 31.026797 285.421129 31.483519 C 284.754118 32.495535 283.850533 33.057401 282.7038 33.172403 C 281.941502 33.24469 281.208776 33.208547 280.49905 33.063973 C 280.364334 33.040973 280.246046 33.077116 280.140901 33.172403 C 280.035757 33.264405 279.973327 33.379407 279.953613 33.514123 C 279.743324 34.411137 280.019328 34.982861 280.781626 35.235865 C 281.71807 35.55787 282.693942 35.55787 283.702673 35.235865 C 284.86912 34.871145 285.97971 34.181134 287.031155 33.172403 C 288.082601 32.160387 288.690468 31.690522 288.85147 31.756238 C 289.012473 31.825239 289.061759 32.022385 288.99933 32.34439 C 288.854756 32.853684 288.480178 33.405693 287.875597 34.000417 Z M 281.218633 31.483519 C 281.156203 31.555806 281.113488 31.63795 281.087202 31.726666 C 281.060916 31.815381 281.093774 31.89424 281.189061 31.969812 C 281.550495 32.176816 281.948073 32.252388 282.375223 32.19653 C 282.802373 32.137387 283.163807 31.976384 283.459526 31.710237 C 283.758531 31.44409 283.886676 31.118799 283.843961 30.734364 C 283.811103 30.599648 283.738816 30.514218 283.623815 30.478074 C 283.508813 30.438645 283.397097 30.432073 283.282095 30.451788 C 282.50994 30.58979 281.823214 30.93151 281.218633 31.483519 Z M 281.218633 31.483519 " stroke="#2a5276" stroke-width="1.6" stroke-opacity="1" stroke-miterlimit="4"/></g></svg>